<?xml version="1.0" encoding="UTF-8"?>
<svg version="1.1" xmlns="http://www.w3.org/2000/svg" width="442" height="440">
<path d="M0 0 C0.96085007 -0.00570007 1.92170013 -0.01140015 2.91166687 -0.01727295 C4.93955403 -0.02667058 6.9674561 -0.03323594 8.99536133 -0.03710938 C12.02779505 -0.04672775 15.05952415 -0.07776567 18.09179688 -0.109375 C34.53883572 -0.19906202 50.40777094 1.53394137 66.38671875 5.515625 C67.25095459 5.72799805 68.11519043 5.94037109 69.00561523 6.15917969 C94.14420612 12.50310025 117.6416855 23.1197951 139.07421875 37.703125 C139.68362305 38.11739746 140.29302734 38.53166992 140.92089844 38.95849609 C151.34404849 46.22910236 160.56111978 54.62939681 169.52294922 63.59375 C171.249424 65.31586133 172.99129607 67.02128055 174.734375 68.7265625 C185.59451885 79.47616515 194.39682995 91.44031085 202.38671875 104.453125 C202.9288501 105.33516602 203.47098145 106.21720703 204.02954102 107.12597656 C212.45463527 121.08179181 218.80699399 135.69680673 223.76171875 151.203125 C223.98311523 151.88020508 224.20451172 152.55728516 224.43261719 153.25488281 C230.17014236 170.93926657 233.87208512 189.38063349 233.96484375 208.00390625 C233.97054382 208.92036423 233.9762439 209.8368222 233.9821167 210.78105164 C233.99151066 212.71478137 233.9980782 214.64852672 234.00195312 216.58227539 C234.01156642 219.46986743 234.04260553 222.35671778 234.07421875 225.24414062 C234.16679395 241.43103061 232.36738966 257.10406095 228.44921875 272.828125 C228.2368457 273.69236084 228.02447266 274.55659668 227.80566406 275.44702148 C221.4617435 300.58561237 210.84504865 324.08309175 196.26171875 345.515625 C195.84744629 346.1250293 195.43317383 346.73443359 195.00634766 347.36230469 C187.73574139 357.78545474 179.33544694 367.00252603 170.37109375 375.96435547 C168.64898242 377.69083025 166.9435632 379.43270232 165.23828125 381.17578125 C154.4886786 392.0359251 142.5245329 400.8382362 129.51171875 408.828125 C128.62967773 409.37025635 127.74763672 409.9123877 126.83886719 410.47094727 C112.88305194 418.89604152 98.26803702 425.24840024 82.76171875 430.203125 C82.08463867 430.42452148 81.40755859 430.64591797 80.70996094 430.87402344 C62.86225933 436.66453549 44.31262569 440.31722921 25.5234375 440.40625 C24.56258743 440.41195007 23.60173737 440.41765015 22.61177063 440.42352295 C20.58388347 440.43292058 18.5559814 440.43948594 16.52807617 440.44335938 C13.49564245 440.45297775 10.46391335 440.48401567 7.43164062 440.515625 C-9.01539822 440.60531202 -24.88433344 438.87230863 -40.86328125 434.890625 C-41.72751709 434.67825195 -42.59175293 434.46587891 -43.48217773 434.24707031 C-68.62076862 427.90314975 -92.118248 417.2864549 -113.55078125 402.703125 C-114.16018555 402.28885254 -114.76958984 401.87458008 -115.39746094 401.44775391 C-125.82061099 394.17714764 -135.03768228 385.77685319 -143.99951172 376.8125 C-145.7259865 375.09038867 -147.46785857 373.38496945 -149.2109375 371.6796875 C-160.07108135 360.93008485 -168.87339245 348.96593915 -176.86328125 335.953125 C-177.4054126 335.07108398 -177.94754395 334.18904297 -178.50610352 333.28027344 C-186.93119777 319.32445819 -193.28355649 304.70944327 -198.23828125 289.203125 C-198.45967773 288.52604492 -198.68107422 287.84896484 -198.90917969 287.15136719 C-204.64670486 269.46698343 -208.34864762 251.02561651 -208.44140625 232.40234375 C-208.44710632 231.48588577 -208.4528064 230.5694278 -208.4586792 229.62519836 C-208.46807316 227.69146863 -208.4746407 225.75772328 -208.47851562 223.82397461 C-208.48812892 220.93638257 -208.51916803 218.04953222 -208.55078125 215.16210938 C-208.64335645 198.97521939 -206.84395216 183.30218905 -202.92578125 167.578125 C-202.7134082 166.71388916 -202.50103516 165.84965332 -202.28222656 164.95922852 C-195.938306 139.82063763 -185.32161115 116.32315825 -170.73828125 94.890625 C-170.32400879 94.2812207 -169.90973633 93.67181641 -169.48291016 93.04394531 C-162.21230389 82.62079526 -153.81200944 73.40372397 -144.84765625 64.44189453 C-143.12554492 62.71541975 -141.4201257 60.97354768 -139.71484375 59.23046875 C-128.9652411 48.3703249 -117.0010954 39.5680138 -103.98828125 31.578125 C-103.10624023 31.03599365 -102.22419922 30.4938623 -101.31542969 29.93530273 C-87.35961444 21.51020848 -72.74459952 15.15784976 -57.23828125 10.203125 C-56.56120117 9.98172852 -55.88412109 9.76033203 -55.18652344 9.53222656 C-37.33882183 3.74171451 -18.78918819 0.08902079 0 0 Z " fill="#FDFEFE" transform="translate(208.23828125,-0.203125)"/>
<path d="M0 0 C1.3418236 0.98857837 2.67569144 1.98807874 4 3 C5.23106681 3.58341862 6.48338255 4.12341949 7.75 4.625 C18.45251348 9.24211738 30.18196842 15.34781394 39 23 C39 23.66 39 24.32 39 25 C39.58523438 25.26941406 40.17046875 25.53882813 40.7734375 25.81640625 C52.1394465 31.85833735 61.21026455 44.38200946 68 55 C68.37092773 55.55800293 68.74185547 56.11600586 69.12402344 56.69091797 C88.11851744 85.47346912 95.76278007 122.45470959 89.50805664 156.42602539 C84.96452424 178.48835336 76.72217694 202.25791602 61.1640625 219.09375 C58.71075082 221.72074006 58.71075082 221.72074006 59.19580078 224.40576172 C60.04283525 227.13818075 61.09676404 229.05332453 62.703125 231.4140625 C63.26539795 232.24873047 63.8276709 233.08339844 64.40698242 233.94335938 C65.01517822 234.82830078 65.62337402 235.71324219 66.25 236.625 C66.87173096 237.54345703 67.49346191 238.46191406 68.1340332 239.40820312 C70.0803584 242.2783873 72.03854651 245.1401373 74 248 C75.23831644 249.80987176 76.47659879 251.61976684 77.71484375 253.4296875 C79.41372617 255.91241721 81.11423145 258.39385903 82.82324219 260.86962891 C90 271.28713427 90 271.28713427 90 274 C81.17736749 274.37218552 72.35746584 274.65568772 63.52867317 274.82899475 C59.42773812 274.91222198 55.33220099 275.02483726 51.234375 275.20703125 C24.73458643 276.35532992 24.73458643 276.35532992 18.56219482 272.46252441 C14.99829621 268.80432545 13.16340084 264.7371619 11.66410828 259.90794373 C10.70937508 257.16505182 9.13008089 255.04075627 7.375 252.75 C3.01843481 246.64674667 -1.10209354 240.3898979 -5.23291016 234.13232422 C-9.59745086 227.52174284 -13.94063318 220.95798033 -18.77734375 214.6796875 C-20.34977268 212.51948162 -21.61592357 210.20956606 -22.90234375 207.87109375 C-24.68752774 204.82802211 -26.77523036 202.00411099 -28.81640625 199.12890625 C-31.58207171 195.16594018 -34.26165654 191.14896562 -36.9375 187.125 C-37.7267688 185.93861938 -37.7267688 185.93861938 -38.53198242 184.72827148 C-40.69857377 181.46911689 -42.86220469 178.20802304 -45.0234375 174.9453125 C-50.13021685 167.25169296 -55.33396987 159.62545904 -60.54614258 152.00292969 C-61.77510732 150.20453872 -63.00229012 148.40492851 -64.22753906 146.60400391 C-65.41226331 144.86347101 -66.60174975 143.12617036 -67.79589844 141.39208984 C-68.34536133 140.58594238 -68.89482422 139.77979492 -69.4609375 138.94921875 C-70.19642822 137.87740356 -70.19642822 137.87740356 -70.94677734 136.78393555 C-72 135 -72 135 -72 133 C-63.25524508 132.76782019 -54.51155768 132.59038627 -45.76438808 132.48187828 C-41.70208476 132.42978495 -37.6418964 132.35920084 -33.58081055 132.24560547 C-29.65783671 132.13656599 -25.73688981 132.07708472 -21.81251717 132.05122757 C-20.31916446 132.03281506 -18.82591723 131.99685295 -17.33343315 131.94269943 C-5.64575593 131.53567136 -5.64575593 131.53567136 -1.57054138 135.16163635 C0.22730682 137.70395757 1.63482042 140.20657134 3 143 C3.81924762 144.25715441 4.6546596 145.5042547 5.51953125 146.73046875 C6.28505327 147.88201626 7.04937021 149.03436577 7.8125 150.1875 C8.66011931 151.4635662 9.50777682 152.73960704 10.35546875 154.015625 C10.78520996 154.66337891 11.21495117 155.31113281 11.65771484 155.97851562 C13.97496272 159.46829599 16.30046354 162.95257229 18.625 166.4375 C19.47139009 167.7070073 20.31774769 168.97653627 21.1640625 170.24609375 C22.07285156 171.60927734 22.07285156 171.60927734 23 173 C25.66303514 167.87266368 27.8747909 162.92137389 29.6875 157.4375 C30.10386719 156.19871094 30.52023437 154.95992187 30.94921875 153.68359375 C36.95715574 132.62231279 33.03124046 110.1242397 22.87890625 91.11328125 C16.09743546 79.87662383 6.88021848 70.49822286 -4.12890625 63.41015625 C-4.74636719 62.94480469 -5.36382812 62.47945313 -6 62 C-6 61.34 -6 60.68 -6 60 C-7.7325 59.62875 -7.7325 59.62875 -9.5 59.25 C-12.56826574 58.49358726 -14.65054477 57.65149387 -17.5 56.125 C-35.19299295 47.07435361 -57.28724886 47.96997079 -76 53 C-77.99638413 53.3543466 -79.99568149 53.69370207 -82 54 C-82 54.66 -82 55.32 -82 56 C-82.58265625 56.18433594 -83.1653125 56.36867188 -83.765625 56.55859375 C-91.61399265 59.33513891 -97.55827213 63.81184702 -104 69 C-104.66 69.49371094 -105.32 69.98742187 -106 70.49609375 C-120.57174956 81.86340764 -129.49035692 101.56534147 -132.58203125 119.34765625 C-135.45824993 144.48096905 -129.44514709 166.92686237 -114 187 C-106.90263106 195.00701682 -99.41169768 201.02155626 -90 206 C-89.113125 206.49886719 -88.22625 206.99773437 -87.3125 207.51171875 C-76.66465275 213.2551907 -66.02112775 216.11034528 -54 216.0625 C-47.74677785 216.40808996 -47.74677785 216.40808996 -44.77734375 218.76171875 C-43.05197408 221.09518049 -41.57702623 223.47576731 -40.16259766 226.0078125 C-38.25181512 229.28206397 -36.09231999 232.38659033 -33.96801758 235.52490234 C-32.12624253 238.24816278 -30.30613011 240.98469869 -28.4921875 243.7265625 C-25.42117371 248.36589675 -22.33857335 252.99734349 -19.25 257.625 C-18.46346961 258.80463946 -17.67700487 259.9843227 -16.890625 261.1640625 C-15.95476562 262.56785156 -15.95476562 262.56785156 -15 264 C-13 267 -13 267 -13 270 C-35.31532248 274.88784117 -60.57153967 275.5264374 -82.73046875 269.59863281 C-85.1225559 268.96767351 -87.52480968 268.41372416 -89.9375 267.8671875 C-109.98859758 263.17932885 -126.79409965 252.97019142 -142.16015625 239.48046875 C-143.93373827 237.93132902 -145.74575388 236.42393862 -147.609375 234.984375 C-152.07984073 231.27359625 -155.40505747 226.53524648 -159 222 C-159.79792969 221.05253906 -160.59585938 220.10507812 -161.41796875 219.12890625 C-183.96557449 191.56275551 -193.95356688 154.23686583 -191 119 C-187.13878297 86.45048705 -172.98121149 55.53024743 -149 33 C-148.17371094 32.17371094 -147.34742188 31.34742188 -146.49609375 30.49609375 C-139.23201746 23.23201746 -131.83334731 17.24932525 -123 12 C-121.99453125 11.36707031 -120.9890625 10.73414062 -119.953125 10.08203125 C-113.96682619 6.39757069 -108.96672356 4.04500853 -102 3 C-102 2.34 -102 1.68 -102 1 C-100.2675 0.5978125 -100.2675 0.5978125 -98.5 0.1875 C-95.66729618 -0.51084018 -93.2212733 -1.31983418 -90.5 -2.4375 C-83.99328624 -4.99093149 -76.86384802 -5.83018607 -70 -7 C-69.05253906 -7.17345947 -68.10507813 -7.34691895 -67.12890625 -7.52563477 C-46.40071633 -10.66818104 -19.28108092 -9.12036741 0 0 Z " fill="#032D5A" transform="translate(270,94)"/>
<path d="M0 0 C22.44 0 44.88 0 68 0 C67.67 0.99 67.34 1.98 67 3 C46.21 2.67 25.42 2.34 4 2 C3.67 2.66 3.34 3.32 3 4 C2.01 3.34 1.02 2.68 0 2 C0 1.34 0 0.68 0 0 Z " fill="#25405B" transform="translate(198,227)"/>
<path d="M0 0 C2 3 2 3 1.6875 5.125 C1 7 1 7 0 8 C-0.20768229 9.47396739 -0.36716017 10.9549126 -0.5 12.4375 C-0.89041096 16.78082192 -0.89041096 16.78082192 -2 19 C-2.2273303 21.91289132 -2.40157662 24.80907737 -2.53515625 27.7265625 C-2.57813339 28.58937836 -2.62111053 29.45219421 -2.66539001 30.34115601 C-2.80195339 33.10225039 -2.93229501 35.86359916 -3.0625 38.625 C-3.15388786 40.4948117 -3.24567958 42.36460371 -3.33789062 44.234375 C-3.56328418 48.82270113 -3.7830975 53.41126495 -4 58 C-4.33 58 -4.66 58 -5 58 C-8.55664874 40.88727207 -7.9265749 15.8531498 0 0 Z " fill="#3E566E" transform="translate(85,186)"/>
<path d="M0 0 C0.66 0.33 1.32 0.66 2 1 C0.375 3.9375 0.375 3.9375 -2 7 C-5.25 7.875 -5.25 7.875 -8 8 C-8.165 8.86625 -8.33 9.7325 -8.5 10.625 C-10.56753874 15.27696216 -13.66012928 17.46910025 -18 20 C-21 20.875 -21 20.875 -23 21 C-18.55230263 11.82662417 -7.99917072 5.87939048 0 0 Z " fill="#0F2F52" transform="translate(142,109)"/>
<path d="M0 0 C0.99 0.33 1.98 0.66 3 1 C2.67 2.32 2.34 3.64 2 5 C-21.43 4.67 -44.86 4.34 -69 4 C-68.67 3.34 -68.34 2.68 -68 2 C-45.23 2.33 -22.46 2.66 1 3 C0.505 1.515 0.505 1.515 0 0 Z " fill="#D8E5EF" transform="translate(359,365)"/>
<path d="M0 0 C1.03625863 3.10877589 0.77733836 4.65448335 0.26220703 7.79736328 C-0.29568007 12.48382267 -0.10052591 17.22521178 -0.0625 21.9375 C-0.05798828 23.00291016 -0.05347656 24.06832031 -0.04882812 25.16601562 C-0.03711787 27.77740291 -0.02071724 30.38867124 0 33 C-0.66 33 -1.32 33 -2 33 C-2.36565155 28.93844817 -2.71550624 24.87568497 -3.0625 20.8125 C-3.16626953 19.66201172 -3.27003906 18.51152344 -3.37695312 17.32617188 C-3.47041016 16.21435547 -3.56386719 15.10253906 -3.66015625 13.95703125 C-3.74918213 12.93585205 -3.83820801 11.91467285 -3.92993164 10.86254883 C-4.02238288 7.0855776 -3.95572434 4.10864024 -1.4375 1.1875 C-0.963125 0.795625 -0.48875 0.40375 0 0 Z " fill="#16334E" transform="translate(137,207)"/>
<path d="M0 0 C0.33 0 0.66 0 1 0 C1.68213155 29.24420386 1.68213155 29.24420386 -2 41 C-2.99 41.495 -2.99 41.495 -4 42 C-3.88553728 39.43663746 -3.75880499 36.87486555 -3.625 34.3125 C-3.5940625 33.59126953 -3.563125 32.87003906 -3.53125 32.12695312 C-3.49257813 31.42119141 -3.45390625 30.71542969 -3.4140625 29.98828125 C-3.3826416 29.34415283 -3.3512207 28.70002441 -3.31884766 28.03637695 C-3 26 -3 26 -2 23.56835938 C-0.94784052 20.86603571 -0.69215385 18.80351301 -0.5859375 15.91796875 C-0.54726563 14.98662109 -0.50859375 14.05527344 -0.46875 13.09570312 C-0.4378125 12.13599609 -0.406875 11.17628906 -0.375 10.1875 C-0.33632813 9.20845703 -0.29765625 8.22941406 -0.2578125 7.22070312 C-0.16389184 4.81398626 -0.07821799 2.40726988 0 0 Z " fill="#354E65" transform="translate(360,216)"/>
<path d="M0 0 C0.33 0 0.66 0 1 0 C1.185625 1.175625 1.37125 2.35125 1.5625 3.5625 C2.74587043 9.09078274 5.17090952 13.92810151 7.69946289 18.94555664 C8.52037425 20.60469998 9.26675236 22.30029415 10 24 C9.67 24.66 9.34 25.32 9 26 C5.71104435 24.44207364 4.25257893 23.56830258 2.75 20.1875 C2.03199856 17.13599388 1.50347081 14.09274925 1 11 C0.67 10.67 0.34 10.34 0 10 C-0.07205511 8.31391034 -0.08386068 6.62499341 -0.0625 4.9375 C-0.05347656 4.01839844 -0.04445312 3.09929687 -0.03515625 2.15234375 C-0.02355469 1.44207031 -0.01195312 0.73179687 0 0 Z " fill="#25415E" transform="translate(137,243)"/>
<path d="M0 0 C1.86925857 2.80388785 2.33995511 3.92395997 2.8515625 7.08984375 C2.98046875 7.87423828 3.109375 8.65863281 3.2421875 9.46679688 C3.36851562 10.28212891 3.49484375 11.09746094 3.625 11.9375 C3.7590625 12.74896484 3.893125 13.56042969 4.03125 14.39648438 C4.61434446 18.02297492 5 21.30557372 5 25 C4.01 25.33 3.02 25.66 2 26 C1.04761955 23.14285866 0.94602352 21.61966875 1.0625 18.6875 C1.11169667 15.63730655 0.95645969 13.87450145 -0.0625 10.9375 C-1.34134101 6.93046484 -0.71079244 4.12259612 0 0 Z " fill="#153252" transform="translate(355,188)"/>
<path d="M0 0 C4.38000076 0.50057152 6.84169815 1.93193534 10 5 C10 5.99 10 6.98 10 8 C10.763125 7.95875 11.52625 7.9175 12.3125 7.875 C15 8 15 8 18 10 C18.1875 13.125 18.1875 13.125 18 16 C16.10290278 14.57717709 14.20634754 13.1537119 12.3125 11.7265625 C10.7807622 10.58293394 9.23910443 9.45246366 7.6875 8.3359375 C6.965625 7.81257812 6.24375 7.28921875 5.5 6.75 C4.8296875 6.27046875 4.159375 5.7909375 3.46875 5.296875 C2.9840625 4.86890625 2.499375 4.4409375 2 4 C2 3.34 2 2.68 2 2 C1.34 2 0.68 2 0 2 C0 1.34 0 0.68 0 0 Z " fill="#2F4A67" transform="translate(262,152)"/>
<path d="M0 0 C0.99 0 1.98 0 3 0 C4.24609375 1.4609375 4.24609375 1.4609375 5.4375 3.375 C7.32097195 6.20020793 8.66942048 7.88980683 12 9 C11.67 10.65 11.34 12.3 11 14 C11.66 14 12.32 14 13 14 C12.34 15.32 11.68 16.64 11 18 C9.53914338 15.7516034 8.08124864 13.50137827 6.625 11.25 C6.2125 10.61578125 5.8 9.9815625 5.375 9.328125 C3.41058376 6.28644824 1.51579092 3.29809453 0 0 Z " fill="#183453" transform="translate(252,308)"/>
<path d="M0 0 C1.98 0 3.96 0 6 0 C-0.92394169 7.11107525 -0.92394169 7.11107525 -6.0625 7.5625 C-9.77981861 7.74586541 -9.77981861 7.74586541 -12 9 C-12.66 8.34 -13.32 7.68 -14 7 C-9.59913433 3.87680501 -5.20540698 2.96396425 0 2 C0 1.34 0 0.68 0 0 Z " fill="#24405F" transform="translate(168,95)"/>
<path d="M0 0 C0.99 0 1.98 0 3 0 C2.54762239 1.91808109 2.08785537 3.83442033 1.625 5.75 C1.36976563 6.81734375 1.11453125 7.8846875 0.8515625 8.984375 C0.12466459 11.55852722 -0.7026224 13.67600186 -2 16 C-2.66 16 -3.32 16 -4 16 C-5.22559653 10.60737527 -5.22559653 10.60737527 -4.1875 7.8125 C-3.13302899 6.20304424 -2.0673125 4.60096876 -1 3 C-0.67 2.01 -0.34 1.02 0 0 Z " fill="#062A55" transform="translate(354,259)"/>
<path d="M0 0 C0 0.66 0 1.32 0 2 C-10.23 2 -20.46 2 -31 2 C-31 1.67 -31 1.34 -31 1 C-27.29204724 0.66234191 -23.58358419 0.33064486 -19.875 0 C-18.30492187 -0.14308594 -18.30492187 -0.14308594 -16.703125 -0.2890625 C-3.00554435 -1.50277218 -3.00554435 -1.50277218 0 0 Z " fill="#0C2D50" transform="translate(351,365)"/>
<path d="M0 0 C-0.78246094 0.18175781 -1.56492188 0.36351562 -2.37109375 0.55078125 C-3.38300781 0.80214844 -4.39492187 1.05351562 -5.4375 1.3125 C-6.44683594 1.55613281 -7.45617187 1.79976562 -8.49609375 2.05078125 C-9.32238281 2.36402344 -10.14867187 2.67726562 -11 3 C-11.33 3.99 -11.66 4.98 -12 6 C-13.299375 6.0928125 -13.299375 6.0928125 -14.625 6.1875 C-18.96047956 7.23122656 -20.76145723 8.99278171 -24 12 C-24.99 11.34 -25.98 10.68 -27 10 C-25.42356682 8.98915735 -23.8385483 7.99169489 -22.25 7 C-21.36828125 6.443125 -20.4865625 5.88625 -19.578125 5.3125 C-17 4 -17 4 -13 4 C-13 3.34 -13 2.68 -13 2 C-11.5882217 1.46605821 -10.17029756 0.94834896 -8.75 0.4375 C-7.96109375 0.14746094 -7.1721875 -0.14257812 -6.359375 -0.44140625 C-3.80896548 -1.04522837 -2.44677771 -0.8473932 0 0 Z " fill="#B1C1CF" transform="translate(201,146)"/>
<path d="M0 0 C0.99 0.33 1.98 0.66 3 1 C0.03 5.29 -2.94 9.58 -6 14 C-7.04973814 9.80104745 -6.72795155 7.20594226 -6 3 C-5.67 3.66 -5.34 4.32 -5 5 C-4.34 5 -3.68 5 -3 5 C-2.690625 4.360625 -2.38125 3.72125 -2.0625 3.0625 C-1 1 -1 1 0 0 Z " fill="#163457" transform="translate(337,300)"/>
<path d="M0 0 C1.9375 0.75 1.9375 0.75 4 2 C4.75 4.125 4.75 4.125 5 6 C6.32 6 7.64 6 9 6 C9.12117188 6.56589844 9.24234375 7.13179687 9.3671875 7.71484375 C9.53476562 8.44832031 9.70234375 9.18179688 9.875 9.9375 C10.11863281 11.03384766 10.11863281 11.03384766 10.3671875 12.15234375 C10.82961523 14.20700294 10.82961523 14.20700294 13 15 C12.67 15.99 12.34 16.98 12 18 C9.1660472 14.49585566 6.42305121 10.94091952 3.75 7.3125 C3.04359375 6.35988281 2.3371875 5.40726563 1.609375 4.42578125 C0 2 0 2 0 0 Z " fill="#E3F0F7" transform="translate(277,243)"/>
<path d="M0 0 C0.33 0 0.66 0 1 0 C2.50072174 7.64003795 1.31239384 12.53140924 -3 19 C-3 19.66 -3 20.32 -3 21 C-3.99 21.33 -4.98 21.66 -6 22 C-4 14.66666667 -2 7.33333333 0 0 Z " fill="#D0DFE9" transform="translate(357,257)"/>
<path d="M0 0 C0.99 0 1.98 0 3 0 C3 1.32 3 2.64 3 4 C3.99 3.67 4.98 3.34 6 3 C6.0825 3.556875 6.165 4.11375 6.25 4.6875 C7.22610013 7.69714206 8.95188814 9.62154752 11 12 C10.67 12.66 10.34 13.32 10 14 C10.99 14.33 11.98 14.66 13 15 C12.67 15.99 12.34 16.98 12 18 C9.1660472 14.49585566 6.42305121 10.94091952 3.75 7.3125 C3.04359375 6.35988281 2.3371875 5.40726562 1.609375 4.42578125 C0 2 0 2 0 0 Z " fill="#E1EFF5" transform="translate(330,321)"/>
<path d="M0 0 C0.33 0.99 0.66 1.98 1 3 C1.66 3 2.32 3 3 3 C3.66 4.98 4.32 6.96 5 9 C0.02790438 7.23570801 -4.43438061 4.6060834 -9 2 C-9 1.67 -9 1.34 -9 1 C-2.25 0.875 -2.25 0.875 0 2 C0 1.34 0 0.68 0 0 Z " fill="#CEDDE6" transform="translate(289,98)"/>
<path d="M0 0 C3.25524265 3.02272532 5.61820737 6.25718301 8 10 C7.67 10.66 7.34 11.32 7 12 C3.34683329 10.75023244 2.21934164 10.32901247 0 7 C0 6.01 0 5.02 0 4 C-0.66 3.67 -1.32 3.34 -2 3 C-1.34 2.67 -0.68 2.34 0 2 C0 1.34 0 0.68 0 0 Z " fill="#DDE9EF" transform="translate(204,238)"/>
<path d="M0 0 C0.66 0 1.32 0 2 0 C2.83719383 2.29032311 3.6698929 4.58210957 4.5 6.875 C4.85771484 7.85146484 4.85771484 7.85146484 5.22265625 8.84765625 C7 13.7734375 7 13.7734375 7 16 C6.34 16 5.68 16 5 16 C4.01 13.69 3.02 11.38 2 9 C1.01 9 0.02 9 -1 9 C-0.67 6.03 -0.34 3.06 0 0 Z " fill="#1F3A59" transform="translate(348,171)"/>
<path d="M0 0 C0.33 0.66 0.66 1.32 1 2 C-0.26780487 4.72343268 -1.59239017 7.35092445 -3 10 C-3.75405952 11.49796336 -4.50427958 12.99786783 -5.25 14.5 C-5.8275 15.655 -6.405 16.81 -7 18 C-7.99 18 -8.98 18 -10 18 C-8.47146065 13.72813475 -6.28490519 10.00673137 -3.875 6.1875 C-3.50246094 5.59001953 -3.12992187 4.99253906 -2.74609375 4.37695312 C-1.8342952 2.91573749 -0.91764024 1.45755415 0 0 Z " fill="#274463" transform="translate(105,145)"/>
<path d="M0 0 C1.32 0.33 2.64 0.66 4 1 C1.69 4.96 -0.62 8.92 -3 13 C-5 10 -5 10 -4.609375 8.02734375 C-4.32578125 7.33769531 -4.0421875 6.64804688 -3.75 5.9375 C-3.47671875 5.24527344 -3.2034375 4.55304688 -2.921875 3.83984375 C-2 2 -2 2 0 0 Z " fill="#E1ECF5" transform="translate(101,145)"/>
<path d="M0 0 C3.25519625 3.02268223 5.78310719 6.14096436 8 10 C7.67 10.99 7.34 11.98 7 13 C6.01 13 5.02 13 4 13 C0.46839815 9.46839815 0.64930231 4.82338857 0 0 Z " fill="#294464" transform="translate(335,330)"/>
<path d="M0 0 C0.33 0.99 0.66 1.98 1 3 C-7.07744875 10.85193622 -7.07744875 10.85193622 -13 11 C-9.0299782 6.78185183 -4.69159716 3.38772897 0 0 Z " fill="#D0DCE5" transform="translate(173,157)"/>
<path d="M0 0 C2 3 2 3 1.6875 5.125 C1 7 1 7 0 8 C-0.20768229 9.47396739 -0.36716017 10.9549126 -0.5 12.4375 C-0.89041096 16.78082192 -0.89041096 16.78082192 -2 19 C-2.66 19 -3.32 19 -4 19 C-3.46048934 12.31006781 -2.11293829 6.36539272 0 0 Z " fill="#2F4E67" transform="translate(85,186)"/>
<path d="M0 0 C0.66 0.33 1.32 0.66 2 1 C-0.7612268 6.28234693 -3.52020256 8.12234494 -8.9765625 10.43359375 C-11 11 -11 11 -13 10 C-11.3970551 8.70681744 -9.79259858 7.41550844 -8.1875 6.125 C-7.29417969 5.40570313 -6.40085938 4.68640625 -5.48046875 3.9453125 C-3 2 -3 2 0 0 Z " fill="#334B68" transform="translate(142,109)"/>
<path d="M0 0 C0.66 0.33 1.32 0.66 2 1 C-0.31 5.62 -2.62 10.24 -5 15 C-5.66 13.68 -6.32 12.36 -7 11 C-6.1015625 8.640625 -6.1015625 8.640625 -4.625 6.25 C-4.14289063 5.45078125 -3.66078125 4.6515625 -3.1640625 3.828125 C-2.77992188 3.22484375 -2.39578125 2.6215625 -2 2 C-1.34 2 -0.68 2 0 2 C0 1.34 0 0.68 0 0 Z " fill="#163554" transform="translate(348,281)"/>
<path d="M0 0 C-1.72863703 1.10499565 -3.45793388 2.20895914 -5.1875 3.3125 C-6.15042969 3.92738281 -7.11335937 4.54226562 -8.10546875 5.17578125 C-10.71634303 6.82123103 -13.3469602 8.42369665 -16 10 C-16 9.01 -16 8.02 -16 7 C-14.68 6.67 -13.36 6.34 -12 6 C-12 5.01 -12 4.02 -12 3 C-10.02 2.67 -8.04 2.34 -6 2 C-6 1.34 -6 0.68 -6 0 C-3.50907189 -1.24546405 -2.58919267 -0.7767578 0 0 Z " fill="#1F3B59" transform="translate(182,152)"/>
<path d="M0 0 C-0.375 1.9375 -0.375 1.9375 -1 4 C-1.99 4.495 -1.99 4.495 -3 5 C-3.268125 5.825 -3.53625 6.65 -3.8125 7.5 C-4.204375 8.325 -4.59625 9.15 -5 10 C-7.625 10.8125 -7.625 10.8125 -10 11 C-4.07692308 0 -4.07692308 0 0 0 Z " fill="#253F5D" transform="translate(116,134)"/>
<path d="M0 0 C3.67033927 3.27708863 5.69281189 6.71522208 8 11 C6.02 11 4.04 11 2 11 C0.80712589 7.12315913 0 4.08378077 0 0 Z " fill="#DCE5EE" transform="translate(282,354)"/>
<path d="M0 0 C1.1328125 1.7109375 1.1328125 1.7109375 2 4 C1.2421875 6.2890625 1.2421875 6.2890625 -0.125 8.625 C-0.56070312 9.40101563 -0.99640625 10.17703125 -1.4453125 10.9765625 C-3.12987678 13.16903561 -4.45887469 13.9857311 -7 15 C-5.63408831 11.45756548 -4.09068516 8.07372071 -2.375 4.6875 C-1.70597656 3.36298828 -1.70597656 3.36298828 -1.0234375 2.01171875 C-0.68570312 1.34785156 -0.34796875 0.68398438 0 0 Z " fill="#CBDBE4" transform="translate(348,284)"/>
<path d="M0 0 C0.33 0 0.66 0 1 0 C1.81898622 3.57350041 2.11811958 6.85659479 2.09765625 10.51953125 C2.09282227 12.0519043 2.09282227 12.0519043 2.08789062 13.61523438 C2.07951172 14.67033203 2.07113281 15.72542969 2.0625 16.8125 C2.05798828 17.88693359 2.05347656 18.96136719 2.04882812 20.06835938 C2.03707729 22.71229683 2.02064787 25.35611952 2 28 C1.67 28 1.34 28 1 28 C1 21.4 1 14.8 1 8 C0.34 8 -0.32 8 -1 8 C-0.67 5.36 -0.34 2.72 0 0 Z " fill="#C2D6E4" transform="translate(302,209)"/>
<path d="M0 0 C0.56170898 0.31694824 1.12341797 0.63389648 1.70214844 0.96044922 C4.16807874 2.07603902 6.07885757 2.39169235 8.765625 2.6328125 C9.65507812 2.71660156 10.54453125 2.80039062 11.4609375 2.88671875 C12.38132813 2.96535156 13.30171875 3.04398437 14.25 3.125 C15.65378906 3.25455078 15.65378906 3.25455078 17.0859375 3.38671875 C19.39007353 3.59832308 21.69462044 3.80248677 24 4 C24 4.33 24 4.66 24 5 C14.41682845 5.35347764 6.23799815 4.89009998 -3 2 C-2.01 1.34 -1.02 0.68 0 0 Z " fill="#A7B8C9" transform="translate(199,306)"/>
<path d="M0 0 C0.99 0 1.98 0 3 0 C5.6653235 3.1983882 6.9397248 5.18628475 7.25 9.375 C7.1675 10.24125 7.085 11.1075 7 12 C0 3.55172414 0 3.55172414 0 0 Z " fill="#193255" transform="translate(222,262)"/>
<path d="M0 0 C0.33 0 0.66 0 1 0 C1 3 1 6 1 9 C0.01 9.495 0.01 9.495 -1 10 C-2.13350534 12.01669827 -2.13350534 12.01669827 -3 14 C-3.66 14 -4.32 14 -5 14 C-3.45730076 9.27934033 -1.92205381 4.58335908 0 0 Z " fill="#2B4867" transform="translate(299,254)"/>
<path d="M0 0 C2 1.8125 2 1.8125 4 4 C4 4.99 4 5.98 4 7 C2.02 7 0.04 7 -2 7 C-2 5.02 -2 3.04 -2 1 C-1.34 0.67 -0.68 0.34 0 0 Z " fill="#324663" transform="translate(253,357)"/>
<path d="M0 0 C3.28788824 3.11016455 5.83735988 6.01618925 8 10 C5.525 9.01 5.525 9.01 3 8 C2.67 8.33 2.34 8.66 2 9 C1.34 8.67 0.68 8.34 0 8 C0 5.36 0 2.72 0 0 Z " fill="#D3E0E8" transform="translate(106,310)"/>
<path d="M0 0 C3.33557632 2.9905167 5.15083921 5.93184627 7 10 C5 10 5 10 3.375 8.5 C2.92125 8.005 2.4675 7.51 2 7 C1.67 7.66 1.34 8.32 1 9 C-0.61949011 6.42786866 -1.04408751 5.32330841 -0.625 2.25 C-0.41875 1.5075 -0.2125 0.765 0 0 Z " fill="#D3DDE6" transform="translate(221,263)"/>
<path d="M0 0 C3.3125 0.625 3.3125 0.625 7 2 C9 4.9375 9 4.9375 10 8 C9.67 8.99 9.34 9.98 9 11 C7.49703315 9.35687553 5.99769719 7.71042916 4.5 6.0625 C3.6646875 5.14597656 2.829375 4.22945312 1.96875 3.28515625 C0 1 0 1 0 0 Z " fill="#284462" transform="translate(280,168)"/>
<path d="M0 0 C4.38000076 0.50057152 6.84169815 1.93193534 10 5 C10 5.99 10 6.98 10 8 C7.0280615 6.87548273 4.66559313 5.77706209 2 4 C2 3.34 2 2.68 2 2 C1.34 2 0.68 2 0 2 C0 1.34 0 0.68 0 0 Z " fill="#1E3E5B" transform="translate(262,152)"/>
<path d="M0 0 C1.485 0.99 1.485 0.99 3 2 C3 2.99 3 3.98 3 5 C3.639375 5.20625 4.27875 5.4125 4.9375 5.625 C7 7 7 7 7.75 10.125 C7.8325 11.07375 7.915 12.0225 8 13 C7.34 13 6.68 13 6 13 C4.4921875 10.91796875 4.4921875 10.91796875 2.875 8.1875 C2.33617187 7.29417969 1.79734375 6.40085938 1.2421875 5.48046875 C0 3 0 3 0 0 Z " fill="#E1EFF6" transform="translate(337,146)"/>
<path d="M0 0 C1.2065625 0.0309375 1.2065625 0.0309375 2.4375 0.0625 C2.1075 1.0525 1.7775 2.0425 1.4375 3.0625 C0.4475 2.7325 -0.5425 2.4025 -1.5625 2.0625 C-1.5625 2.7225 -1.5625 3.3825 -1.5625 4.0625 C-3.5425 5.0525 -3.5425 5.0525 -5.5625 6.0625 C-3.26136364 0.07954545 -3.26136364 0.07954545 0 0 Z M-6.5625 8.0625 C-8.2125 8.7225 -9.8625 9.3825 -11.5625 10.0625 C-11.8925 9.4025 -12.2225 8.7425 -12.5625 8.0625 C-9.5625 7.0625 -9.5625 7.0625 -6.5625 8.0625 Z " fill="#082951" transform="translate(146.5625,108.9375)"/>
<path d="M0 0 C0.66 0.99 1.32 1.98 2 3 C0.25 6.875 0.25 6.875 -2 8 C-2.66 8.99 -3.32 9.98 -4 11 C-4.8125 8.875 -4.8125 8.875 -5 6 C-3.55576519 3.69892439 -1.89127865 1.98353614 0 0 Z " fill="#D3DFE9" transform="translate(333,310)"/>
<path d="M0 0 C2.64465038 3.1254959 3.84414715 6.08788267 5 10 C4.01 9.67 3.02 9.34 2 9 C2 8.34 2 7.68 2 7 C1.34 7 0.68 7 0 7 C-0.33 7.66 -0.66 8.32 -1 9 C-1.125 2.25 -1.125 2.25 0 0 Z " fill="#D9E5EC" transform="translate(92,286)"/>
<path d="M0 0 C3.8480063 1.4595886 5.21206544 3.33899114 7 7 C7.6875 9.8125 7.6875 9.8125 8 12 C4.74451247 8.97704729 2.31022942 5.79537691 0 2 C0 1.34 0 0.68 0 0 Z " fill="#1D3956" transform="translate(206,239)"/>
<path d="M0 0 C5.44455793 0.7163892 10.88296551 1.98595064 16 4 C16.33 4.66 16.66 5.32 17 6 C12.71 5.34 8.42 4.68 4 4 C4 3.34 4 2.68 4 2 C2.68 1.34 1.36 0.68 0 0 Z " fill="#6E8397" transform="translate(254,90)"/>
<path d="M0 0 C0.928125 0.2784375 0.928125 0.2784375 1.875 0.5625 C4.04160178 1.23686176 4.04160178 1.23686176 6 0 C6.103125 0.78375 6.20625 1.5675 6.3125 2.375 C6.77595022 5.33045181 6.77595022 5.33045181 10 7 C10 7.99 10 8.98 10 10 C6.56870293 8.85623431 5.62153121 7.71081232 3.3125 5 C2.68988281 4.278125 2.06726563 3.55625 1.42578125 2.8125 C0 1 0 1 0 0 Z " fill="#273F5B" transform="translate(113,318)"/>
<path d="M0 0 C0.66 0 1.32 0 2 0 C2 0.66 2 1.32 2 2 C2.66 2 3.32 2 4 2 C4 2.66 4 3.32 4 4 C5.32 4.33 6.64 4.66 8 5 C7.67 6.65 7.34 8.3 7 10 C3.66442368 7.0094833 1.84916079 4.06815373 0 0 Z " fill="#DDEAF2" transform="translate(270,233)"/>
<path d="M0 0 C1.98 1.65 3.96 3.3 6 5 C5.67 5.99 5.34 6.98 5 8 C2.13275314 7.42655063 1.1385485 7.1385485 -1 5 C-0.625 2.375 -0.625 2.375 0 0 Z " fill="#213D5B" transform="translate(325,134)"/>
<path d="M0 0 C2.94721162 2.74395564 5.19168608 5.38337216 7 9 C6.67 9.66 6.34 10.32 6 11 C4.68 10.67 3.36 10.34 2 10 C1.34 6.7 0.68 3.4 0 0 Z " fill="#D0DFE8" transform="translate(288,178)"/>
<path d="M0 0 C2.5 2.3125 2.5 2.3125 5 5 C5 5.99 5 6.98 5 8 C5.66 8.33 6.32 8.66 7 9 C6.01 9 5.02 9 4 9 C1.25 6.1875 1.25 6.1875 -1 3 C-0.67 2.01 -0.34 1.02 0 0 Z " fill="#183653" transform="translate(107,307)"/>
<path d="M0 0 C0.66 0 1.32 0 2 0 C2 0.66 2 1.32 2 2 C2.99 2 3.98 2 5 2 C6.75 3.75 6.75 3.75 8 6 C7.6875 8.25 7.6875 8.25 7 10 C4.3513141 6.80331012 2.06007659 3.60513403 0 0 Z " fill="#203D57" transform="translate(241,292)"/>
<path d="M0 0 C0.66 0 1.32 0 2 0 C2.66 4.29 3.32 8.58 4 13 C3.01 13.495 3.01 13.495 2 14 C1.66179834 12.4176994 1.32964061 10.83410625 1 9.25 C0.814375 8.36828125 0.62875 7.4865625 0.4375 6.578125 C0 4 0 4 0 0 Z " fill="#213A59" transform="translate(81,247)"/>
<path d="M0 0 C0 0.66 0 1.32 0 2 C-0.99 2 -1.98 2 -3 2 C-3.33 3.65 -3.66 5.3 -4 7 C-6.97 6.505 -6.97 6.505 -10 6 C-4.4 0 -4.4 0 0 0 Z " fill="#2F4C66" transform="translate(154,103)"/>
<path d="M0 0 C0.66 0.33 1.32 0.66 2 1 C2 1.66 2 2.32 2 3 C2.99 3.33 3.98 3.66 5 4 C4.67 5.65 4.34 7.3 4 9 C1.24338912 6.51015791 -0.60746455 4.79450934 -1 1 C-0.67 0.67 -0.34 0.34 0 0 Z " fill="#E4F2F6" transform="translate(249,346)"/>
<path d="M0 0 C2.0245738 1.93254772 3.42105792 3.63158688 5 6 C4.34 7.32 3.68 8.64 3 10 C1.35 7.03 -0.3 4.06 -2 1 C-1.34 0.67 -0.68 0.34 0 0 Z " fill="#1F3C5C" transform="translate(272,334)"/>
<path d="M0 0 C2.97 0.495 2.97 0.495 6 1 C6.625 3.875 6.625 3.875 7 7 C6.34 7.66 5.68 8.32 5 9 C3.35 6.03 1.7 3.06 0 0 Z " fill="#1D3959" transform="translate(264,326)"/>
<path d="M0 0 C0.6875 1.75 0.6875 1.75 1 4 C-0.25 6.25 -0.25 6.25 -2 8 C-2.99 8 -3.98 8 -5 8 C-3.375 2.25 -3.375 2.25 0 0 Z " fill="#0A2C50" transform="translate(329,311)"/>
<path d="M0 0 C0.99 0 1.98 0 3 0 C2.54901762 1.93922422 2.08894441 3.87633594 1.625 5.8125 C1.36976563 6.89144531 1.11453125 7.97039062 0.8515625 9.08203125 C0 12 0 12 -2 15 C-1.855625 14.01 -1.71125 13.02 -1.5625 12 C-0.99074821 8.00590535 -0.49180166 4.00467063 0 0 Z " fill="#1A3654" transform="translate(354,259)"/>
<path d="M0 0 C1.0625 1.875 1.0625 1.875 2 4 C1.67 4.66 1.34 5.32 1 6 C0.34 6 -0.32 6 -1 6 C-1.33 6.99 -1.66 7.98 -2 9 C-2.33 6.36 -2.66 3.72 -3 1 C-2.01 0.67 -1.02 0.34 0 0 Z " fill="#12335A" transform="translate(343,159)"/>
<path d="M0 0 C3.3 0 6.6 0 10 0 C10.66 1.32 11.32 2.64 12 4 C9.69 3.67 7.38 3.34 5 3 C5 2.34 5 1.68 5 1 C3.35 1 1.7 1 0 1 C0 0.67 0 0.34 0 0 Z " fill="#304964" transform="translate(213,311)"/>
<path d="M0 0 C1.24546405 2.49092811 0.7767578 3.41080733 0 6 C-2.31 6.66 -4.62 7.32 -7 8 C-5.08864614 4.46399535 -3.37357234 2.21027154 0 0 Z " fill="#1B3756" transform="translate(126,122)"/>
<path d="M0 0 C2.56616632 3.84924948 2.55097676 6.4349304 3 11 C2.01 11.66 1.02 12.32 0 13 C-0.87890625 6.84765625 -0.87890625 6.84765625 -1 5 C-0.67 4.67 -0.34 4.34 0 4 C0 2.68 0 1.36 0 0 Z " fill="#354E6B" transform="translate(355,188)"/>
<path d="M0 0 C0.66 0 1.32 0 2 0 C0.63016497 3.16115776 0.0109362 3.9927092 -3 6 C-3.99 5.67 -4.98 5.34 -6 5 C-6 4.34 -6 3.68 -6 3 C-5.34 3 -4.68 3 -4 3 C-4 2.34 -4 1.68 -4 1 C-2.68 1.33 -1.36 1.66 0 2 C0 1.34 0 0.68 0 0 Z " fill="#092A4E" transform="translate(161,163)"/>
<path d="M0 0 C0.45375 0.969375 0.9075 1.93875 1.375 2.9375 C2.65786221 6.07079582 2.65786221 6.07079582 5 7 C4.67 7.66 4.34 8.32 4 9 C3.01 8.34 2.02 7.68 1 7 C1 6.34 1 5.68 1 5 C0.0409375 4.566875 0.0409375 4.566875 -0.9375 4.125 C-3 3 -3 3 -4 1 C-2 0 -2 0 0 0 Z " fill="#C6D5DF" transform="translate(167,287)"/>
<path d="M0 0 C1.9375 0.75 1.9375 0.75 4 2 C4.625 4.0625 4.625 4.0625 5 6 C5.66 6.33 6.32 6.66 7 7 C6.34 7.66 5.68 8.32 5 9 C4.16094435 7.87926138 3.32892169 6.75325453 2.5 5.625 C2.0359375 4.99851563 1.571875 4.37203125 1.09375 3.7265625 C0 2 0 2 0 0 Z " fill="#D4E6F0" transform="translate(277,243)"/>
<path d="M0 0 C1 3 1 3 0.375 5.0625 C-1.40232276 7.56690935 -3.1198813 8.09048883 -6 9 C-4.47291037 5.56404834 -2.40072955 2.88087546 0 0 Z " fill="#C6D6E1" transform="translate(159,168)"/>
<path d="M0 0 C0.99 1.32 1.98 2.64 3 4 C1.68 5.32 0.36 6.64 -1 8 C-1.625 5.6875 -1.625 5.6875 -2 3 C-1.34 2.01 -0.68 1.02 0 0 Z " fill="#113557" transform="translate(152,170)"/>
<path d="M0 0 C0.99 0.33 1.98 0.66 3 1 C3 1.66 3 2.32 3 3 C3.598125 3.268125 4.19625 3.53625 4.8125 3.8125 C6.97224808 4.98493467 8.35790256 6.19369282 10 8 C8.68 8 7.36 8 6 8 C5.34 7.34 4.68 6.68 4 6 C3.34 6 2.68 6 2 6 C2 4.68 2 3.36 2 2 C1.34 2 0.68 2 0 2 C0 1.34 0 0.68 0 0 Z " fill="#2B4563" transform="translate(306,116)"/>
<path d="M0 0 C0 3.3 0 6.6 0 10 C-0.33 9.01 -0.66 8.02 -1 7 C-1.66 7 -2.32 7 -3 7 C-3 5.02 -3 3.04 -3 1 C-1 0 -1 0 0 0 Z " fill="#0A2A51" transform="translate(84,240)"/>
<path d="M0 0 C2.66735273 2.48952921 4.55746343 4.63408134 6 8 C3.625 7.3125 3.625 7.3125 1 6 C-0.3125 3.375 -0.3125 3.375 -1 1 C-0.67 0.67 -0.34 0.34 0 0 Z " fill="#1F3E59" transform="translate(273,239)"/>
<path d="M0 0 C0.66 1.32 1.32 2.64 2 4 C0.625 6 0.625 6 -1 8 C-1.66 8 -2.32 8 -3 8 C-1.125 2.25 -1.125 2.25 0 0 Z M2 1 C2.66 1 3.32 1 4 1 C3.67 1.99 3.34 2.98 3 4 C2.67 3.01 2.34 2.02 2 1 Z " fill="#294969" transform="translate(94,163)"/>
<path d="M0 0 C3.96 1.98 3.96 1.98 8 4 C5 6 5 6 1 6 C0.67 4.02 0.34 2.04 0 0 Z " fill="#173B5B" transform="translate(288,104)"/>
<path d="M0 0 C4.29 0.66 8.58 1.32 13 2 C13 2.33 13 2.66 13 3 C12.31292969 2.98839844 11.62585938 2.97679687 10.91796875 2.96484375 C10.01691406 2.95582031 9.11585938 2.94679688 8.1875 2.9375 C7.29417969 2.92589844 6.40085938 2.91429687 5.48046875 2.90234375 C2.86586209 2.88990033 2.86586209 2.88990033 0 4 C0 2.68 0 1.36 0 0 Z " fill="#DFECF4" transform="translate(181,363)"/>
<path d="M0 0 C0.99 0.33 1.98 0.66 3 1 C4.1875 3.5625 4.1875 3.5625 5 6 C4.01 6 3.02 6 2 6 C1.34 5.34 0.68 4.68 0 4 C0 2.68 0 1.36 0 0 Z " fill="#1E3C59" transform="translate(327,320)"/>
<path d="M0 0 C0.99 0 1.98 0 3 0 C3 1.65 3 3.3 3 5 C3.66 5 4.32 5 5 5 C5.33 6.32 5.66 7.64 6 9 C5.01 9.495 5.01 9.495 4 10 C2.68 6.7 1.36 3.4 0 0 Z " fill="#223D58" transform="translate(89,278)"/>
<path d="M0 0 C1.70884005 1.62339805 3.37446717 3.29319053 5 5 C5 5.66 5 6.32 5 7 C4.01 7 3.02 7 2 7 C2 6.34 2 5.68 2 5 C1.34 5 0.68 5 0 5 C0 3.35 0 1.7 0 0 Z " fill="#1E3B57" transform="translate(268,232)"/>
<path d="M0 0 C2.97 0.495 2.97 0.495 6 1 C2.93882432 3.62386487 2.26826873 4 -2 4 C-1.34 2.68 -0.68 1.36 0 0 Z " fill="#C9D8E3" transform="translate(172,91)"/>
<path d="M0 0 C1.32 0 2.64 0 4 0 C4 0.99 4 1.98 4 3 C4.99 3 5.98 3 7 3 C7 3.66 7 4.32 7 5 C4.69 4.34 2.38 3.68 0 3 C0 2.01 0 1.02 0 0 Z " fill="#405874" transform="translate(157,351)"/>
<path d="M0 0 C0.66 0.33 1.32 0.66 2 1 C2 1.99 2 2.98 2 4 C2.66 4 3.32 4 4 4 C4 5.65 4 7.3 4 9 C0 4.5 0 4.5 0 0 Z " fill="#DCEDF3" transform="translate(228,315)"/>
<path d="M0 0 C0.99 1.32 1.98 2.64 3 4 C1.6875 5.5 1.6875 5.5 0 7 C-0.99 7 -1.98 7 -3 7 C-1.125 2.25 -1.125 2.25 0 0 Z " fill="#D0E0E8" transform="translate(340,299)"/>
<path d="M0 0 C3.33557632 2.9905167 5.15083921 5.93184627 7 10 C6.34 10 5.68 10 5 10 C5 9.34 5 8.68 5 8 C4.01 7.67 3.02 7.34 2 7 C0.8125 3.4375 0.8125 3.4375 0 0 Z " fill="#2E4B68" transform="translate(286,258)"/>
<path d="M0 0 C3 1 3 1 4.6875 4.0625 C5.120625 5.031875 5.55375 6.00125 6 7 C5.34 7 4.68 7 4 7 C4 6.34 4 5.68 4 5 C3.01 5 2.02 5 1 5 C0.67 3.35 0.34 1.7 0 0 Z " fill="#364F69" transform="translate(243,343)"/>
<path d="M0 0 C0.66 0 1.32 0 2 0 C3.32 2.31 4.64 4.62 6 7 C5.01 7.33 4.02 7.66 3 8 C2.67 6.35 2.34 4.7 2 3 C1.34 3 0.68 3 0 3 C0 2.01 0 1.02 0 0 Z " fill="#2C4868" transform="translate(227,319)"/>
<path d="M0 0 C0.33 0.99 0.66 1.98 1 3 C0.67 3.66 0.34 4.32 0 5 C0.66 5 1.32 5 2 5 C1.34 6.32 0.68 7.64 0 9 C-0.99 7.02 -1.98 5.04 -3 3 C-2.01 2.01 -1.02 1.02 0 0 Z " fill="#1B3C5F" transform="translate(263,317)"/>
<path d="M0 0 C1.65 0 3.3 0 5 0 C5 1.32 5 2.64 5 4 C4.01 4.33 3.02 4.66 2 5 C1.01 4.34 0.02 3.68 -1 3 C-0.67 2.01 -0.34 1.02 0 0 Z " fill="#0E345D" transform="translate(91,171)"/>
<path d="M0 0 C2.5 2.3125 2.5 2.3125 5 5 C5 5.99 5 6.98 5 8 C2.21611025 6.29374499 1.14615794 5.52373261 0.25 2.3125 C0.1675 1.549375 0.085 0.78625 0 0 Z " fill="#2A4361" transform="translate(319,127)"/>
<path d="M0 0 C4.875 2.75 4.875 2.75 6 5 C5.34 5 4.68 5 4 5 C3.67 5.99 3.34 6.98 3 8 C2.814375 7.13375 2.814375 7.13375 2.625 6.25 C1.99351176 3.97664233 1.11141809 2.0746471 0 0 Z " fill="#DAE3EA" transform="translate(128,334)"/>
<path d="M0 0 C0.33 0 0.66 0 1 0 C1 2.64 1 5.28 1 8 C0.01 7.67 -0.98 7.34 -2 7 C-1.125 1.125 -1.125 1.125 0 0 Z " fill="#153450" transform="translate(304,240)"/>
<path d="M0 0 C2.50037734 2.17424117 3.43628586 3.73045798 4 7 C3.01 7 2.02 7 1 7 C-0.0625 4.625 -0.0625 4.625 -1 2 C-0.67 1.34 -0.34 0.68 0 0 Z " fill="#DFEAF2" transform="translate(267,225)"/>
<path d="M0 0 C0.91058531 3.07322544 1.08886184 5.80097361 1 9 C0.01 9 -0.98 9 -2 9 C-1.125 2.25 -1.125 2.25 0 0 Z " fill="#2C4964" transform="translate(88,177)"/>
</svg>
